<svg width="40" height="40" viewBox="0 0 40 40" fill="none" xmlns="http://www.w3.org/2000/svg">
<circle cx="20" cy="20" r="19.5" fill="black" stroke="black"/>
<path d="M20.003 9.60001C14.2579 9.60001 9.59961 14.2566 9.59961 20C9.59961 25.7434 14.2579 30.4 20.003 30.4C28.6783 30.4 30.6328 22.3461 29.819 18.2667H28.6663H26.701H19.9996V21.7333H26.7061C25.9352 24.7218 23.2288 26.9333 19.9996 26.9333C16.1707 26.9333 13.0663 23.8289 13.0663 20C13.0663 16.1711 16.1707 13.0667 19.9996 13.0667C21.7407 13.0667 23.3269 13.713 24.5445 14.7729L27.0074 12.3117C25.158 10.6269 22.7009 9.60001 20.003 9.60001Z" fill="white"/>
</svg>
