<svg width="22" height="16" viewBox="0 0 22 16" fill="none" xmlns="http://www.w3.org/2000/svg">
<path d="M16.8281 15.2656C17.0781 15.5078 17.4609 15.5234 17.7109 15.2656C17.9688 15 17.9531 14.625 17.7109 14.3828L4.47656 1.16406C4.24219 0.921875 3.83594 0.914062 3.59375 1.16406C3.35938 1.39844 3.35938 1.80469 3.59375 2.03906L16.8281 15.2656ZM17.5625 12.8906C19.8438 11.3594 21.2969 9.28906 21.2969 8.36719C21.2969 6.78906 17 1.67969 10.6719 1.67969C9.34375 1.67969 8.10156 1.89844 6.97656 2.27344L9.10938 4.40625C9.58594 4.21094 10.1172 4.09375 10.6719 4.09375C13.0469 4.09375 14.9688 5.98438 14.9688 8.375C14.9688 8.92188 14.8516 9.46094 14.6406 9.9375L17.5625 12.8906ZM10.6719 15.0625C12.1016 15.0625 13.4297 14.8047 14.6016 14.375L12.4531 12.2344C11.9219 12.5 11.3125 12.6406 10.6719 12.6406C8.28906 12.6406 6.38281 10.6953 6.375 8.375C6.375 7.71875 6.52344 7.10938 6.78125 6.5625L3.97656 3.74219C1.53906 5.30469 0.046875 7.44531 0.046875 8.36719C0.046875 9.95312 4.42188 15.0625 10.6719 15.0625ZM13.1797 8.21094C13.1797 6.84375 12.0703 5.73438 10.6953 5.73438C10.6094 5.73438 10.5234 5.74219 10.4453 5.75L13.1562 8.46094C13.1641 8.38281 13.1797 8.29688 13.1797 8.21094ZM8.15625 8.23438C8.15625 9.60156 9.28906 10.7109 10.6484 10.7109C10.7422 10.7109 10.8281 10.7031 10.9219 10.6953L8.17188 7.95312C8.16406 8.04688 8.15625 8.14062 8.15625 8.23438Z" fill="#DADADA"/>
</svg>
