<svg width="40" height="41" viewBox="0 0 40 41" fill="none" xmlns="http://www.w3.org/2000/svg">
<circle cx="20" cy="21" r="19.5" fill="black" stroke="black"/>
<circle cx="19.9997" cy="20" r="14.6667" fill="white"/>
<path d="M36 20C36 28.836 28.836 36 20 36C11.164 36 4 28.836 4 20C4 11.164 11.164 4 20 4C28.836 4 36 11.164 36 20ZM25.5747 10.8413C25.1693 10.7867 24.3133 10.6667 22.6947 10.6667C19.3147 10.6667 17.3333 12.452 17.3333 16.5187V18.6667H13.3333V22.6667H17.3333V33.0653C18.1947 33.24 19.0867 33.3333 20 33.3333C20.4507 33.3333 20.8947 33.3093 21.3333 33.2667V22.6667H24.968L25.5387 18.6667H21.3333V16.9573C21.3333 15.424 21.8347 14.6667 23.2693 14.6667H25.5747V10.8413Z" fill="black"/>
</svg>
