<svg width="40" height="40" viewBox="0 0 40 40" fill="none" xmlns="http://www.w3.org/2000/svg">
<circle cx="20" cy="20" r="19.5" fill="black" stroke="black"/>
<path d="M29.156 15.4803C29.0494 15.5471 26.5118 16.9554 26.5118 20.078C26.6314 23.6391 29.7142 24.888 29.767 24.888C29.7142 24.9547 29.3016 26.5893 28.0796 28.3027C27.1098 29.7786 26.0334 31.2667 24.3989 31.2667C22.8441 31.2667 22.286 30.283 20.492 30.283C18.5654 30.283 18.0202 31.2667 16.5452 31.2667C14.9106 31.2667 13.7545 29.6989 12.7318 28.2368C11.4032 26.3232 10.274 23.3202 10.2341 20.4368C10.2072 18.9089 10.5002 17.4069 11.2438 16.1312C12.2933 14.3502 14.167 13.1412 16.2132 13.1013C17.781 13.0485 19.1764 14.1777 20.1332 14.1777C21.0501 14.1777 22.7644 13.1013 24.704 13.1013C25.5412 13.1022 27.7737 13.3544 29.156 15.4803ZM20.0006 12.7963C19.7215 11.4009 20.492 10.0056 21.2096 9.11553C22.1265 8.03913 23.5747 7.30853 24.8236 7.30853C24.9033 8.70387 24.398 10.0723 23.495 11.069C22.6846 12.1454 21.2893 12.9557 20.0006 12.7963Z" fill="white"/>
</svg>
