<svg width="48" height="48" viewBox="0 0 48 48" fill="none" xmlns="http://www.w3.org/2000/svg">
<circle cx="24" cy="24" r="24" fill="black"/>
<path d="M30.8574 23.9492C30.8574 23.4609 30.6816 23.0605 30.2812 22.6797L22.8984 15.4434C22.6055 15.1504 22.2441 15.0039 21.8145 15.0039C20.9551 15.0039 20.252 15.707 20.252 16.5566C20.252 16.9863 20.4277 17.3867 20.75 17.6992L27.1855 23.9395L20.75 30.1895C20.4277 30.5117 20.252 30.9023 20.252 31.3418C20.252 32.2012 20.9551 32.8945 21.8145 32.8945C22.2441 32.8945 22.6055 32.748 22.8984 32.4551L30.2812 25.2188C30.6914 24.8281 30.8574 24.4277 30.8574 23.9492Z" fill="white"/>
</svg>
